<svg xmlns="http://www.w3.org/2000/svg" viewBox="0 0 64 64" width="64" height="64">
  <defs><linearGradient id="g" x1="0" y1="0" x2="64" y2="64" gradientUnits="userSpaceOnUse">
    <stop offset="0" stop-color="#67e8f9"/><stop offset="1" stop-color="#0891b2"/></linearGradient></defs>
<rect width="64" height="64" rx="14" fill="#0b0a10"/>
  <g fill="none" stroke="url(#g)" stroke-linecap="round" stroke-linejoin="round">
    <g stroke-width="2" opacity="0.30">
      <path d="M32 32 L32 8"/><path d="M32 32 L52.8 20"/><path d="M32 32 L52.8 44"/>
      <path d="M32 32 L32 56"/><path d="M32 32 L11.2 44"/><path d="M32 32 L11.2 20"/>
    </g>
    <path stroke-width="2" opacity="0.32" d="M32 8 L52.8 20 L52.8 44 L32 56 L11.2 44 L11.2 20 Z"/>
    <path stroke-width="2" opacity="0.55" d="M32 18 L42.2 24 L42.2 40 L32 46 L21.8 40 L21.8 24 Z"/>
  </g>
  <g fill="none" stroke="url(#g)" stroke-width="3.2" stroke-linecap="round">
    <path d="M18 32 C24 23, 40 23, 46 32 C40 41, 24 41, 18 32 Z"/>
  </g>
  <circle cx="32" cy="32" r="6.2" fill="none" stroke="url(#g)" stroke-width="2.6"/>
  <circle cx="32" cy="32" r="2.8" fill="#22d3ee"/>
</svg>
